<?xml version="1.0" encoding="utf-8"?>
<!-- Generator: Adobe Illustrator 27.2.0, SVG Export Plug-In . SVG Version: 6.00 Build 0)  -->
<svg version="1.1" id="Layer_1" xmlns="http://www.w3.org/2000/svg" xmlns:xlink="http://www.w3.org/1999/xlink" x="0px" y="0px"
	 viewBox="0 0 106.1 30.5" style="enable-background:new 0 0 106.1 30.5;" xml:space="preserve">
<style type="text/css">
	.st0{fill:#171717;}
	.st1{fill:#FFFFFF;}
</style>
<rect class="st0" width="52.8" height="30.5"/>
<g>
	<path class="st1" d="M7.9,9.3c0.7-0.1,1.8-0.2,2.9-0.2c1.3,0,2.3,0.2,3,0.7c0.7,0.5,1.1,1.1,1.1,2.1c0,0.9-0.6,1.9-1.7,2.4l0,0
		c1.2,0.4,2.1,1.3,2.1,2.6c0,0.9-0.4,1.7-1,2.3c-0.8,0.7-2,1-4,1c-1,0-1.9-0.1-2.4-0.2L7.9,9.3L7.9,9.3L7.9,9.3L7.9,9.3z M10.2,13.5
		h0.7c1.1,0,1.8-0.6,1.8-1.4s-0.6-1.3-1.6-1.3c-0.5,0-0.8,0-0.9,0.1V13.5z M10.2,18.3h0.8c1,0,1.9-0.5,1.9-1.6c0-1-0.9-1.5-2-1.5
		h-0.8L10.2,18.3L10.2,18.3L10.2,18.3L10.2,18.3z"/>
	<path class="st1" d="M20.1,17.2l-0.7,2.6h-2.4L20,9.1h3L26,20h-2.4l-0.8-2.6L20.1,17.2L20.1,17.2L20.1,17.2z M22.5,15.5L22,13.3
		c-0.2-0.7-0.4-1.5-0.5-2.2l0,0c-0.2,0.7-0.3,1.6-0.5,2.2l-0.6,2.3H22.5z"/>
	<path class="st1" d="M35.2,19.7c-0.4,0.2-1.3,0.4-2.4,0.4c-3.5,0-5.2-2.4-5.2-5.4c0-3.8,2.5-5.7,5.5-5.7c1.1,0,2,0.2,2.3,0.4
		l-0.5,1.9c-0.4-0.2-0.9-0.4-1.7-0.4c-1.7,0-3.1,1.1-3.1,3.6c0,2.3,1.2,3.6,3.1,3.6c0.7,0,1.3-0.1,1.7-0.3L35.2,19.7L35.2,19.7z"/>
	<path class="st1" d="M37.5,9.1h2.4v4.8l0,0c0.2-0.5,0.5-0.9,0.7-1.2l2.2-3.6h2.8l-3.2,4.6l3.4,6.1h-2.6l-2.4-4.6l-0.8,1v3.6h-2.4
		V9.1H37.5L37.5,9.1z"/>
</g>
<g>
	<path class="st0" d="M57.5,9.3c0.8-0.1,1.8-0.2,2.9-0.2c1.5,0,2.5,0.2,3.3,0.9c0.7,0.6,0.9,1.3,0.9,2.3c0,1.3-0.9,2.3-1.8,2.6l0,0
		c0.8,0.3,1.1,1,1.4,2.1c0.3,1.2,0.6,2.6,0.9,3h-2.4c-0.2-0.3-0.4-1.2-0.7-2.5c-0.3-1.3-0.7-1.7-1.6-1.7h-0.6V20h-2.4L57.5,9.3
		L57.5,9.3L57.5,9.3z M59.8,13.9h0.8c1.1,0,1.8-0.7,1.8-1.6c0-0.9-0.6-1.5-1.6-1.5c-0.5,0-0.8,0-0.9,0.1L59.8,13.9L59.8,13.9z"/>
	<path class="st0" d="M76,14.4c0,3.7-1.9,5.7-4.7,5.7c-3,0-4.6-2.4-4.6-5.6S68.5,9,71.4,9C74.5,9,76,11.6,76,14.4L76,14.4L76,14.4z
		 M69.1,14.6c0,2.3,0.9,3.7,2.3,3.7s2.2-1.6,2.2-3.7S72.8,11,71.4,11C70,10.9,69.1,12.4,69.1,14.6z"/>
	<path class="st0" d="M80.6,17.2L80,19.9h-2.4l2.9-10.7h3l3,10.8h-2.4l-0.8-2.6L80.6,17.2L80.6,17.2L80.6,17.2z M83.1,15.5l-0.6-2.3
		c-0.2-0.7-0.4-1.5-0.5-2.2l0,0c-0.2,0.7-0.3,1.6-0.5,2.2L81,15.5H83.1L83.1,15.5z"/>
	<path class="st0" d="M88.7,9.3c0.8-0.1,1.9-0.2,2.9-0.2c1.9,0,3,0.4,4,1.1c1,0.9,1.7,2.2,1.7,4.1s-0.7,3.6-1.7,4.4
		s-2.5,1.3-4.5,1.3c-1.1,0-1.9-0.1-2.4-0.2L88.7,9.3L88.7,9.3L88.7,9.3L88.7,9.3z M91.1,18.2h0.8c1.9,0,3.1-1.1,3.1-3.9
		c0-2.3-1.1-3.5-2.9-3.5c-0.4,0-0.8,0-0.9,0.1V18.2L91.1,18.2z"/>
	<path class="st0" d="M99.6,17.5c0.6,0.3,1.5,0.6,2.4,0.6c1,0,1.6-0.5,1.6-1.2c0-0.7-0.5-1.1-1.7-1.6c-1.7-0.8-2.7-1.8-2.7-3.1
		c0-1.8,1.4-3.2,3.9-3.2c1,0,1.9,0.2,2.4,0.5l-0.5,1.9c-0.4-0.2-1-0.5-2-0.5c-1,0-1.5,0.5-1.5,1c0,0.7,0.5,0.9,1.9,1.6
		c1.8,0.8,2.5,1.8,2.5,3.2c0,1.9-1.4,3.3-4.1,3.3c-1.1,0-2.3-0.3-2.7-0.6L99.6,17.5L99.6,17.5L99.6,17.5z"/>
</g>
</svg>
